#VRML V2.0 utf8
# 3D model generated by easyeda2kicad.py (https://github.com/uPesy/easyeda2kicad.py)

Shape{
    appearance Appearance {
        material  Material 	{
            diffuseColor 0.8 0.8 0.8
            specularColor 1.0 1.0 1.0
            ambientIntensity 1.0
            transparency 0.0
            shininess 0.5
        }
    }
    geometry IndexedFaceSet {
        ccw TRUE
        solid FALSE
        coord DEF co Coordinate {
            point [
                2.0079 1.0236 2.0866, 2.0079 -1.0236 2.0866, 2.1654 1.0236 2.0866, 2.1654 -1.0236 2.0866, 2.0079 1.0236 0.0, 2.1654 1.0236 0.0, 2.0079 0.1969 0.0, 2.1654 0.1969 0.0, 2.0079 0.1969 -1.2205, 2.1654 0.1969 -1.2205, 2.0079 -0.1969 -1.2205, 2.1654 -0.1969 -1.2205, 2.0079 -0.1969 0.0, 2.1654 -0.1969 0.0, 2.0079 -1.0236 0.0, 2.1654 -1.0236 0.0, -2.0079 0.1969 -1.2205, -2.0079 -0.1969 -1.2205, -2.1654 0.1969 -1.2205, -2.1654 -0.1969 -1.2205, -2.0079 0.1969 0.0, -2.1654 0.1969 0.0, -2.0079 1.0236 0.0, -2.1654 1.0236 0.0, -2.0079 1.0236 2.0866, -2.1654 1.0236 2.0866, -2.0079 -1.0236 2.0866, -2.1654 -1.0236 2.0866, -2.0079 -1.0236 0.0, -2.1654 -1.0236 0.0, -2.0079 -0.1969 0.0, -2.1654 -0.1969 0.0, 1.9685 -1.2205 2.0866, 1.9735 -1.1764 2.0866, 1.9689 -1.2075 2.1126, 1.9711 -1.1886 2.1346, 1.9867 -1.1379 2.1618, 1.9809 -1.1516 2.1574, 1.9882 -1.1346 2.0866, 1.9765 -1.165 2.1513, 1.9735 -1.1764 2.1443, 2.054 -1.0581 2.1654, 2.0435 -1.0659 2.0866, 2.0674 -1.0498 2.1646, 2.0811 -1.0425 2.0866, 2.0965 -1.0361 2.1575, 2.0828 -1.0419 2.1617, 2.0811 -1.0425 2.1622, 2.1231 -1.0282 2.0866, 2.1231 -1.0282 2.143, 2.1098 -1.0316 2.1513, 2.1524 -1.024 2.1126, 2.1335 -1.0262 2.1346, 2.0435 -1.0659 2.1654, 2.0119 -1.0971 2.1654, 2.0119 -1.0971 2.0866, 2.003 -1.1091 2.1654, 1.9882 -1.1346 2.1626, 1.9877 1.1358 2.1623, 2.003 1.1091 2.1654, 1.9877 1.1358 2.0866, 2.0113 1.0979 2.0866, 1.9731 1.178 2.0866, 1.9731 1.178 2.1432, 1.9765 1.165 2.1513, 1.9809 1.1516 2.1575, 1.9868 1.1379 2.1617, 1.9685 1.2205 2.0866, 1.9689 1.2075 2.1126, 1.9711 1.1886 2.1346, 2.1228 1.0283 2.0866, 2.1524 1.024 2.1126, 2.1335 1.0262 2.1346, 2.0828 1.0418 2.1618, 2.0965 1.0361 2.1574, 2.0807 1.0428 2.0866, 2.1098 1.0316 2.1513, 2.1228 1.0283 2.1432, 2.0113 1.0979 2.1654, 2.0428 1.0664 2.1654, 2.0428 1.0664 2.0866, 2.054 1.0581 2.1654, 2.0807 1.0428 2.1623, -1.9685 1.2205 2.0866, -1.9731 1.178 2.0866, -1.9689 1.2075 2.1126, -1.9711 1.1886 2.1346, -1.9867 1.1379 2.1618, -1.9809 1.1516 2.1574, -1.9877 1.1358 2.0866, -1.9765 1.165 2.1513, -1.9731 1.178 2.1432, -2.0807 1.0428 2.1623, -2.054 1.0581 2.1654, -2.0807 1.0428 2.0866, -2.0428 1.0664 2.0866, -2.1228 1.0283 2.0866, -2.1228 1.0283 2.1432, -2.1098 1.0316 2.1513, -2.0965 1.0361 2.1575, -2.0827 1.0419 2.1617, -2.1524 1.024 2.1126, -2.1335 1.0262 2.1346, -2.0428 1.0664 2.1654, -2.0113 1.0979 2.1654, -2.0113 1.0979 2.0866, -2.003 1.1091 2.1654, -1.9877 1.1358 2.1623, -2.1654 -1.0236 2.0866, -2.1228 -1.0283 2.0866, -2.1524 -1.024 2.1126, -2.1335 -1.0262 2.1346, -2.0828 -1.0418 2.1618, -2.0965 -1.0361 2.1574, -2.0807 -1.0428 2.0866, -2.1098 -1.0316 2.1513, -2.1228 -1.0283 2.1432, -1.9877 -1.1358 2.1623, -2.003 -1.1091 2.1654, -1.9877 -1.1358 2.0866, -2.0113 -1.0979 2.0866, -1.9731 -1.178 2.0866, -1.9731 -1.178 2.1432, -1.9765 -1.165 2.1513, -1.9809 -1.1516 2.1575, -1.9868 -1.1379 2.1617, -1.9685 -1.2205 2.0866, -1.9689 -1.2075 2.1126, -1.9711 -1.1886 2.1346, -2.0113 -1.0979 2.1654, -2.0428 -1.0664 2.1654, -2.0428 -1.0664 2.0866, -2.054 -1.0581 2.1654, -2.0807 -1.0428 2.1623, 0.9252 -0.8268 2.1654, -0.9252 -0.8268 2.1654, 0.9252 0.8268 2.1654, -0.9252 0.8268 2.1654, -0.9252 0.8268 2.0866, -0.9252 -0.8268 2.0866, 0.9252 0.8268 2.0866, 0.9252 -0.8268 2.0866
            ]
        }
        coordIndex [
            0,1,2,-1,2,1,3,-1,4,0,5,-1,5,0,2,-1,6,4,7,-1,7,4,5,-1,8,6,9,-1,9,6,7,-1,10,8,11,-1,11,8,9,-1,12,10,13,-1,13,10,11,-1,14,12,15,-1,15,12,13,-1,1,14,3,-1,3,14,15,-1,0,4,1,-1,1,4,6,-1,14,1,12,-1,12,1,6,-1,12,6,10,-1,10,6,8,-1,3,15,2,-1,2,15,13,-1,5,2,7,-1,7,2,13,-1,7,13,9,-1,9,13,11,-1,16,17,18,-1,18,17,19,-1,20,16,21,-1,21,16,18,-1,22,20,23,-1,23,20,21,-1,24,22,25,-1,25,22,23,-1,26,24,27,-1,27,24,25,-1,28,26,29,-1,29,26,27,-1,30,28,31,-1,31,28,29,-1,17,30,19,-1,19,30,31,-1,20,22,24,-1,26,28,30,-1,17,16,30,-1,30,16,20,-1,30,20,26,-1,26,20,24,-1,31,29,27,-1,25,23,21,-1,18,19,21,-1,21,19,31,-1,21,31,25,-1,25,31,27,-1,32,33,34,-1,34,33,35,-1,36,37,38,-1,38,37,39,-1,38,39,33,-1,33,39,40,-1,33,40,35,-1,41,42,43,-1,43,42,44,-1,45,46,44,-1,44,46,47,-1,44,47,43,-1,48,49,44,-1,44,49,50,-1,44,50,45,-1,3,51,48,-1,48,51,52,-1,48,52,49,-1,41,53,42,-1,42,53,54,-1,42,54,55,-1,55,54,56,-1,55,56,38,-1,38,56,57,-1,38,57,36,-1,58,59,60,-1,60,59,61,-1,62,63,60,-1,60,63,64,-1,64,65,60,-1,60,65,66,-1,60,66,58,-1,67,68,62,-1,62,68,69,-1,62,69,63,-1,2,70,71,-1,71,70,72,-1,73,74,75,-1,75,74,76,-1,75,76,70,-1,70,76,77,-1,70,77,72,-1,59,78,61,-1,61,78,79,-1,61,79,80,-1,80,79,81,-1,80,81,75,-1,75,81,82,-1,75,82,73,-1,83,84,85,-1,85,84,86,-1,87,88,89,-1,89,88,90,-1,89,90,84,-1,84,90,91,-1,84,91,86,-1,92,93,94,-1,94,93,95,-1,96,97,94,-1,94,97,98,-1,98,99,94,-1,94,99,100,-1,94,100,92,-1,25,101,96,-1,96,101,102,-1,96,102,97,-1,93,103,95,-1,95,103,104,-1,95,104,105,-1,105,104,106,-1,105,106,89,-1,89,106,107,-1,89,107,87,-1,108,109,110,-1,110,109,111,-1,112,113,114,-1,114,113,115,-1,114,115,109,-1,109,115,116,-1,109,116,111,-1,117,118,119,-1,119,118,120,-1,121,122,119,-1,119,122,123,-1,123,124,119,-1,119,124,125,-1,119,125,117,-1,126,127,121,-1,121,127,128,-1,121,128,122,-1,118,129,120,-1,120,129,130,-1,120,130,131,-1,131,130,132,-1,131,132,114,-1,114,132,133,-1,114,133,112,-1,134,135,118,-1,93,132,103,-1,103,132,130,-1,103,130,135,-1,135,130,129,-1,135,129,118,-1,118,56,134,-1,134,56,54,-1,134,54,53,-1,41,81,53,-1,53,81,79,-1,53,79,134,-1,134,79,78,-1,134,78,136,-1,136,78,59,-1,136,59,137,-1,137,59,106,-1,137,106,135,-1,135,106,104,-1,135,104,103,-1,131,114,138,-1,121,119,139,-1,62,60,140,-1,105,89,138,-1,140,60,141,-1,60,61,141,-1,141,61,80,-1,141,80,75,-1,139,119,138,-1,138,119,120,-1,138,120,131,-1,89,84,138,-1,138,84,83,-1,138,83,140,-1,140,83,67,-1,140,67,62,-1,38,33,141,-1,141,33,32,-1,141,32,139,-1,139,32,126,-1,139,126,121,-1,108,25,109,-1,109,25,96,-1,109,96,114,-1,114,96,94,-1,114,94,138,-1,138,94,95,-1,138,95,105,-1,70,2,3,-1,3,48,70,-1,70,48,44,-1,70,44,75,-1,75,44,42,-1,75,42,141,-1,141,42,55,-1,141,55,38,-1,74,73,45,-1,82,81,41,-1,41,43,82,-1,82,43,47,-1,82,47,73,-1,73,47,46,-1,73,46,45,-1,74,45,76,-1,76,45,50,-1,76,50,77,-1,77,50,49,-1,77,49,72,-1,49,52,72,-1,72,52,51,-1,72,51,71,-1,71,51,3,-1,71,3,2,-1,56,118,117,-1,124,123,39,-1,124,39,125,-1,39,37,125,-1,125,37,36,-1,125,36,117,-1,117,36,57,-1,117,57,56,-1,122,35,123,-1,123,35,40,-1,123,40,39,-1,122,128,35,-1,35,128,127,-1,35,127,34,-1,34,127,126,-1,34,126,32,-1,25,108,110,-1,25,110,101,-1,101,110,111,-1,101,111,102,-1,115,98,97,-1,102,111,97,-1,97,111,116,-1,97,116,115,-1,112,100,99,-1,98,115,99,-1,99,115,113,-1,99,113,112,-1,132,93,92,-1,100,112,92,-1,92,112,133,-1,92,133,132,-1,86,68,85,-1,85,68,67,-1,85,67,83,-1,64,63,86,-1,86,63,69,-1,86,69,68,-1,86,91,64,-1,64,91,90,-1,64,90,65,-1,65,90,66,-1,106,59,58,-1,90,88,66,-1,66,88,87,-1,66,87,58,-1,58,87,107,-1,58,107,106,-1,140,141,136,-1,136,141,134,-1,141,139,134,-1,134,139,135,-1,139,138,135,-1,135,138,137,-1,138,140,137,-1,137,140,136,-1,
        ]
    }
}
Shape{
    appearance Appearance {
        material  Material 	{
            diffuseColor 0.2 0.2 0.2
            specularColor 0.25098039215686274 0.25098039215686274 0.25098039215686274
            ambientIntensity 0.251
            transparency 0.0
            shininess 0.5
        }
    }
    geometry IndexedFaceSet {
        ccw TRUE
        solid FALSE
        coord DEF co Coordinate {
            point [
                0.4921 -0.748 4.4731, 0.0984 -0.748 2.0866, 0.8858 -0.748 2.0866, 0.7048 -0.748 4.4731, 0.6503 -0.748 4.5276, 0.5958 -0.748 4.4731, 0.3339 -0.748 4.5276, 0.2794 -0.748 4.4731, 0.3884 -0.748 4.4731, 0.4429 -0.748 4.5276, 0.1159 -0.748 4.5276, 0.0984 -0.748 4.5276, 0.1704 -0.748 4.4731, 0.2249 -0.748 4.5276, 0.8858 -0.748 4.5276, 0.8615 -0.748 4.5276, 0.8104 -0.748 4.4765, 0.5413 -0.748 4.5276, 0.7593 -0.748 4.5276, 0.4921 0.748 4.4731, 0.5413 0.748 4.5276, 0.5958 0.748 4.4731, 0.8858 0.748 2.0866, 0.0984 0.748 2.0866, 0.2249 0.748 4.5276, 0.2794 0.748 4.4731, 0.1704 0.748 4.4731, 0.1159 0.748 4.5276, 0.0984 0.748 4.5276, 0.4429 0.748 4.5276, 0.3884 0.748 4.4731, 0.3339 0.748 4.5276, 0.6503 0.748 4.5276, 0.7048 0.748 4.4731, 0.8615 0.748 4.5276, 0.8858 0.748 4.5276, 0.8104 0.748 4.4765, 0.7593 0.748 4.5276
            ]
        }
        coordIndex [
            0,1,2,-1,3,4,5,-1,6,7,8,-1,8,7,1,-1,8,1,9,-1,9,1,0,-1,10,11,12,-1,12,11,1,-1,12,1,13,-1,13,1,7,-1,14,15,2,-1,2,15,16,-1,17,0,5,-1,5,0,2,-1,5,2,3,-1,3,2,16,-1,3,16,18,-1,19,20,21,-1,22,23,19,-1,24,25,26,-1,26,25,23,-1,26,23,27,-1,27,23,28,-1,29,19,30,-1,30,19,23,-1,30,23,31,-1,31,23,25,-1,19,21,22,-1,22,21,32,-1,22,32,33,-1,34,35,36,-1,36,35,22,-1,36,22,37,-1,37,22,33,-1,14,35,15,-1,15,35,34,-1,27,28,10,-1,10,28,11,-1,11,28,1,-1,1,28,23,-1,35,14,22,-1,22,14,2,-1,22,2,23,-1,23,2,1,-1,10,12,27,-1,27,12,26,-1,12,13,26,-1,26,13,24,-1,7,6,25,-1,25,6,31,-1,13,7,24,-1,24,7,25,-1,8,9,30,-1,30,9,29,-1,6,8,31,-1,31,8,30,-1,0,17,19,-1,19,17,20,-1,0,19,9,-1,9,19,29,-1,4,32,5,-1,5,32,21,-1,5,21,17,-1,17,21,20,-1,18,37,3,-1,3,37,33,-1,3,33,4,-1,4,33,32,-1,15,34,16,-1,16,34,36,-1,16,36,18,-1,18,36,37,-1,
        ]
    }
}
Shape{
    appearance Appearance {
        material  Material 	{
            diffuseColor 0.8 0.8 0.8
            specularColor 1.0 1.0 1.0
            ambientIntensity 1.0
            transparency 0.0
            shininess 0.5
        }
    }
    geometry IndexedFaceSet {
        ccw TRUE
        solid FALSE
        coord DEF co Coordinate {
            point [
                0.0984 0.4134 -1.378, 0.0984 0.5709 -1.378, 0.0984 0.4134 0.5118, 0.0984 0.5709 0.5118, -0.0984 0.4134 -1.378, -0.0984 0.4134 0.5118, -0.0984 0.5709 -1.378, -0.0984 0.5709 0.5118, 1.0827 0.4134 -1.378, 1.0827 0.5709 -1.378, 1.0827 0.4134 0.5118, 1.0827 0.5709 0.5118, 0.8858 0.4134 -1.378, 0.8858 0.4134 0.5118, 0.8858 0.5709 -1.378, 0.8858 0.5709 0.5118, -0.8858 0.4134 -1.378, -0.8858 0.5709 -1.378, -0.8858 0.4134 0.5118, -0.8858 0.5709 0.5118, -1.0827 0.4134 -1.378, -1.0827 0.4134 0.5118, -1.0827 0.5709 -1.378, -1.0827 0.5709 0.5118, 0.0984 -0.5709 -1.378, 0.0984 -0.4134 -1.378, 0.0984 -0.5709 0.5118, 0.0984 -0.4134 0.5118, -0.0984 -0.5709 -1.378, -0.0984 -0.5709 0.5118, -0.0984 -0.4134 -1.378, -0.0984 -0.4134 0.5118, -1.0827 -0.5709 -1.378, -0.8858 -0.5709 -1.378, -1.0827 -0.5709 0.5118, -0.8858 -0.5709 0.5118, -1.0827 -0.4134 -1.378, -1.0827 -0.4134 0.5118, -0.8858 -0.4134 -1.378, -0.8858 -0.4134 0.5118, 0.8858 -0.5709 -1.378, 1.0827 -0.5709 -1.378, 0.8858 -0.5709 0.5118, 1.0827 -0.5709 0.5118, 0.8858 -0.4134 -1.378, 0.8858 -0.4134 0.5118, 1.0827 -0.4134 -1.378, 1.0827 -0.4134 0.5118, 1.7717 -1.1024 0.3937, 1.9685 -1.1024 0.3937, 1.7717 -1.2205 0.3937, 1.9685 -1.2205 0.3937, -1.7717 -1.2205 0.3937, -1.9685 -1.2205 0.3937, -1.7717 -1.1024 0.3937, -1.9685 -1.1024 0.3937, -1.9685 -1.1024 2.0866, -1.9685 -1.2205 2.0866, 1.9685 -1.1024 2.0866, 1.9685 -1.2205 2.0866, 1.6142 -1.0336 0.1926, 1.6142 -1.1517 0.1926, 1.6142 -1.1024 0.3937, 1.6142 -1.2205 0.3937, 1.6142 -1.1024 0.748, 1.6142 -1.2205 0.748, -1.6142 -1.1024 0.748, -1.6142 -1.2205 0.748, -1.6142 -1.1024 0.3937, -1.6142 -1.2205 0.3937, -1.6142 -1.0336 0.1926, -1.6142 -1.1517 0.1926, -1.7717 -1.1517 0.1926, -1.7717 -1.0336 0.1926, 1.7717 -1.1517 0.1926, 1.7717 -1.0336 0.1926, -1.9685 1.1024 2.0866, 1.9685 1.1024 2.0866, -1.9685 1.2205 2.0866, 1.9685 1.2205 2.0866, -1.9685 1.1024 0.3937, -1.9685 1.2205 0.3937, -1.7717 1.1024 0.3937, -1.7717 1.2205 0.3937, -1.6142 1.0336 0.1926, -1.6142 1.1517 0.1926, -1.6142 1.1024 0.3937, -1.6142 1.2205 0.3937, -1.6142 1.1024 0.748, -1.6142 1.2205 0.748, 1.6142 1.1024 0.748, 1.6142 1.2205 0.748, 1.6142 1.1024 0.3937, 1.6142 1.2205 0.3937, 1.6142 1.0336 0.1926, 1.6142 1.1517 0.1926, 1.9685 1.2205 0.3937, 1.9685 1.1024 0.3937, 1.7717 1.2205 0.3937, 1.7717 1.1024 0.3937, -1.7717 1.1517 0.1926, -1.7717 1.0336 0.1926, 1.7717 1.0336 0.1926, 1.7717 1.1517 0.1926
            ]
        }
        coordIndex [
            0,1,2,-1,2,1,3,-1,4,0,5,-1,5,0,2,-1,6,4,7,-1,7,4,5,-1,1,6,3,-1,3,6,7,-1,4,6,0,-1,0,6,1,-1,7,5,3,-1,3,5,2,-1,8,9,10,-1,10,9,11,-1,12,8,13,-1,13,8,10,-1,14,12,15,-1,15,12,13,-1,9,14,11,-1,11,14,15,-1,12,14,8,-1,8,14,9,-1,15,13,11,-1,11,13,10,-1,16,17,18,-1,18,17,19,-1,20,16,21,-1,21,16,18,-1,22,20,23,-1,23,20,21,-1,17,22,19,-1,19,22,23,-1,20,22,16,-1,16,22,17,-1,23,21,19,-1,19,21,18,-1,24,25,26,-1,26,25,27,-1,28,24,29,-1,29,24,26,-1,30,28,31,-1,31,28,29,-1,25,30,27,-1,27,30,31,-1,28,30,24,-1,24,30,25,-1,31,29,27,-1,27,29,26,-1,32,33,34,-1,34,33,35,-1,36,32,37,-1,37,32,34,-1,38,36,39,-1,39,36,37,-1,33,38,35,-1,35,38,39,-1,36,38,32,-1,32,38,33,-1,39,37,35,-1,35,37,34,-1,40,41,42,-1,42,41,43,-1,44,40,45,-1,45,40,42,-1,46,44,47,-1,47,44,45,-1,41,46,43,-1,43,46,47,-1,44,46,40,-1,40,46,41,-1,47,45,43,-1,43,45,42,-1,48,49,50,-1,50,49,51,-1,52,53,54,-1,54,53,55,-1,56,55,57,-1,57,55,53,-1,58,56,59,-1,59,56,57,-1,49,58,51,-1,51,58,59,-1,60,61,62,-1,62,61,63,-1,62,63,64,-1,64,63,65,-1,66,64,67,-1,67,64,65,-1,66,67,68,-1,68,67,69,-1,68,69,70,-1,70,69,71,-1,54,55,56,-1,48,62,64,-1,68,54,66,-1,66,54,56,-1,66,56,64,-1,64,56,58,-1,64,58,48,-1,48,58,49,-1,50,51,59,-1,52,69,67,-1,63,50,65,-1,65,50,59,-1,65,59,67,-1,67,59,57,-1,67,57,52,-1,52,57,53,-1,52,54,72,-1,72,54,73,-1,69,52,71,-1,71,52,72,-1,70,73,68,-1,68,73,54,-1,71,72,70,-1,70,72,73,-1,74,75,50,-1,50,75,48,-1,61,74,63,-1,63,74,50,-1,60,75,61,-1,61,75,74,-1,62,48,60,-1,60,48,75,-1,76,77,78,-1,78,77,79,-1,80,76,81,-1,81,76,78,-1,80,81,82,-1,82,81,83,-1,84,85,86,-1,86,85,87,-1,86,87,88,-1,88,87,89,-1,90,88,91,-1,91,88,89,-1,90,91,92,-1,92,91,93,-1,92,93,94,-1,94,93,95,-1,96,97,98,-1,98,97,99,-1,77,97,79,-1,79,97,96,-1,99,97,77,-1,82,86,88,-1,92,99,90,-1,90,99,77,-1,90,77,88,-1,88,77,76,-1,88,76,82,-1,82,76,80,-1,83,81,78,-1,98,93,91,-1,87,83,89,-1,89,83,78,-1,89,78,91,-1,91,78,79,-1,91,79,98,-1,98,79,96,-1,100,101,83,-1,83,101,82,-1,85,100,87,-1,87,100,83,-1,84,101,85,-1,85,101,100,-1,86,82,84,-1,84,82,101,-1,99,102,98,-1,98,102,103,-1,94,102,92,-1,92,102,99,-1,95,103,94,-1,94,103,102,-1,93,98,95,-1,95,98,103,-1,
        ]
    }
}
Shape{
    appearance Appearance {
        material  Material 	{
            diffuseColor 0.2 0.2 0.2
            specularColor 0.25098039215686274 0.25098039215686274 0.25098039215686274
            ambientIntensity 0.251
            transparency 0.0
            shininess 0.5
        }
    }
    geometry IndexedFaceSet {
        ccw TRUE
        solid FALSE
        coord DEF co Coordinate {
            point [
                0.9252 -0.8268 2.126, 0.8858 -0.748 2.126, 0.0984 -0.748 2.126, 0.8858 0.748 2.126, 0.9252 0.8268 2.126, 0.0984 0.748 2.126, -0.9252 0.8268 2.126, -0.9252 -0.8268 2.126, 0.0984 -0.748 2.0866, 0.8858 -0.748 2.0866, 0.9252 -0.8268 2.0866, 0.9252 0.8268 2.0866, 0.8858 0.748 2.0866, 0.0984 0.748 2.0866, -0.9252 0.8268 2.0866, -0.9252 -0.8268 2.0866
            ]
        }
        coordIndex [
            0,1,2,-1,1,0,3,-1,3,0,4,-1,3,4,5,-1,5,4,6,-1,5,6,2,-1,2,6,7,-1,2,7,0,-1,8,9,10,-1,10,9,11,-1,9,12,11,-1,11,12,13,-1,11,13,14,-1,14,13,8,-1,14,8,15,-1,15,8,10,-1,7,6,15,-1,15,6,14,-1,0,7,10,-1,10,7,15,-1,4,0,11,-1,11,0,10,-1,6,4,14,-1,14,4,11,-1,5,2,13,-1,13,2,8,-1,2,1,8,-1,8,1,9,-1,1,3,9,-1,9,3,12,-1,3,5,12,-1,12,5,13,-1,
        ]
    }
}
Shape{
    appearance Appearance {
        material  Material 	{
            diffuseColor 0.7686274509803922 0.49019607843137253 0.3176470588235294
            specularColor 0.3843137254901961 0.24313725490196078 0.1607843137254902
            ambientIntensity 0.5538
            transparency 0.0
            shininess 0.5
        }
    }
    geometry IndexedFaceSet {
        ccw TRUE
        solid FALSE
        coord DEF co Coordinate {
            point [
                -1.5748 -1.0236 0.5118, -1.9685 -1.0236 0.5118, -1.9685 -0.0527 0.5118, -0.151 -0.052 0.5118, -0.1372 -0.0211 0.5118, -0.1307 -0.0312 0.5118, -0.03 -0.052 0.5118, 0.0305 -0.052 0.5118, 0.0415 -0.0527 0.5118, 0.0305 0.0607 0.5118, -0.1214 -0.0401 0.5118, -0.1096 -0.0469 0.5118, -0.0966 -0.0508 0.5118, -0.03 -0.0397 0.5118, -0.052 -0.052 0.5118, -0.0827 -0.052 0.5118, -0.052 0.0607 0.5118, -0.0245 0.0112 0.5118, -0.0245 -0.0012 0.5118, 0.0154 -0.0012 0.5118, 0.0154 -0.0397 0.5118, -0.2528 -0.052 0.5118, -0.2363 -0.052 0.5118, 0.0154 0.0112 0.5118, -0.0273 0.0484 0.5118, 0.0154 0.0484 0.5118, -0.2249 -0.0204 0.5118, -0.1783 -0.0204 0.5118, -0.1675 -0.052 0.5118, -0.1001 0.059 0.5118, -0.1133 0.0544 0.5118, -0.1937 0.0607 0.5118, -0.1256 0.0461 0.5118, -0.0838 0.0607 0.5118, -1.9685 1.0236 0.5118, -0.1257 0.046 0.5118, -0.1337 0.0372 0.5118, -0.1389 0.0275 0.5118, -0.142 0.0164 0.5118, -0.1428 0.0058 0.5118, -0.1412 -0.0093 0.5118, 0.0415 -1.2205 0.5118, -1.5748 -1.2205 0.5118, -0.2088 0.0607 0.5118, 1.9685 -0.0527 0.5118, 1.9685 -1.0236 0.5118, 0.0902 -0.0527 0.5118, 1.5748 -1.0236 0.5118, 0.0835 -0.0534 0.5118, 1.5748 -1.2205 0.5118, 0.0789 0.0497 0.5118, 0.09 0.0485 0.5118, 0.0545 -0.0349 0.5118, -1.5748 1.0236 0.5118, -0.0273 0.0607 0.5118, -1.5748 1.2205 0.5118, 0.0415 1.2205 0.5118, 0.0525 -0.0338 0.5118, 0.0525 -0.0462 0.5118, 0.0645 -0.0511 0.5118, 0.0759 -0.0527 0.5118, 0.0805 -0.0534 0.5118, 0.0652 0.048 0.5118, 0.0525 0.0425 0.5118, 0.0525 0.0576 0.5118, 0.1305 0.031 0.5118, 0.1238 0.0416 0.5118, 0.1887 0.0607 0.5118, 0.2038 0.0607 0.5118, 1.5748 1.2205 0.5118, 0.2038 -0.052 0.5118, 1.5748 1.0236 0.5118, 1.9685 1.0236 0.5118, 0.146 -0.052 0.5118, 0.0974 -0.052 0.5118, 0.1084 -0.0482 0.5118, 0.0985 0.0454 0.5118, 0.1063 0.0402 0.5118, 0.1131 0.0327 0.5118, 0.1213 0.0031 0.5118, 0.1201 -0.0091 0.5118, 0.1171 -0.0188 0.5118, 0.092 -0.0399 0.5118, 0.0815 -0.041 0.5118, 0.1002 -0.0368 0.5118, 0.1071 -0.0322 0.5118, 0.1124 -0.0266 0.5118, 0.0665 -0.0394 0.5118, 0.1177 0.024 0.5118, 0.1207 0.0119 0.5118, 0.1174 -0.0424 0.5118, 0.1259 -0.0335 0.5118, 0.146 -0.0397 0.5118, 0.1319 -0.0228 0.5118, 0.1887 -0.0397 0.5118, 0.1137 0.0514 0.5118, 0.103 0.0575 0.5118, 0.0904 0.0612 0.5118, 0.1353 -0.0108 0.5118, 0.1364 0.0022 0.5118, 0.1348 0.0183 0.5118, 0.0791 0.0621 0.5118, 0.0656 0.0612 0.5118, 1.9685 1.0236 2.0866, 1.9685 -1.0236 2.0866, -1.9685 1.0236 2.0866, -1.9685 -1.0236 2.0866, 1.5748 -1.2205 0.7087, -1.5748 -1.2205 0.7087, -1.5748 1.2205 0.7087, 1.5748 1.2205 0.7087, 1.5748 -1.0236 0.7087, -1.5748 -1.0236 0.7087, -1.5748 1.0236 0.7087, 1.5748 1.0236 0.7087
            ]
        }
        coordIndex [
            0,1,2,-1,3,4,5,-1,6,7,8,-1,8,7,9,-1,5,10,3,-1,3,10,11,-1,3,11,12,-1,13,6,14,-1,14,6,8,-1,14,8,15,-1,16,17,18,-1,19,20,18,-1,18,20,13,-1,18,13,16,-1,16,13,14,-1,21,22,8,-1,17,16,23,-1,23,16,24,-1,23,24,25,-1,26,27,22,-1,22,27,28,-1,22,28,8,-1,8,28,3,-1,8,3,15,-1,15,3,12,-1,29,30,31,-1,31,30,32,-1,29,31,33,-1,33,31,34,-1,33,34,16,-1,32,35,31,-1,31,35,36,-1,31,36,37,-1,37,38,31,-1,31,38,39,-1,31,39,3,-1,3,39,40,-1,3,40,4,-1,8,41,42,-1,42,0,8,-1,8,0,2,-1,8,2,21,-1,21,2,34,-1,21,34,43,-1,43,34,31,-1,44,45,46,-1,46,45,47,-1,46,47,48,-1,48,47,49,-1,48,49,41,-1,50,51,52,-1,16,34,24,-1,24,34,53,-1,24,53,54,-1,54,53,55,-1,54,55,9,-1,9,55,56,-1,9,56,8,-1,8,56,57,-1,8,57,58,-1,58,59,8,-1,8,59,60,-1,8,60,41,-1,41,60,61,-1,41,61,48,-1,50,52,62,-1,62,52,57,-1,62,57,63,-1,63,57,56,-1,63,56,64,-1,65,66,67,-1,67,66,56,-1,67,56,68,-1,68,56,69,-1,68,69,70,-1,70,69,71,-1,70,71,72,-1,72,44,70,-1,70,44,46,-1,70,46,73,-1,73,46,74,-1,73,74,75,-1,51,76,52,-1,52,76,77,-1,52,77,78,-1,79,80,52,-1,52,80,81,-1,82,83,84,-1,84,83,85,-1,81,86,52,-1,52,86,85,-1,52,85,87,-1,87,85,83,-1,78,88,52,-1,52,88,89,-1,52,89,79,-1,75,90,73,-1,73,90,91,-1,73,91,92,-1,92,91,93,-1,92,93,94,-1,66,95,56,-1,56,95,96,-1,56,96,97,-1,93,98,94,-1,94,98,99,-1,94,99,67,-1,67,99,100,-1,67,100,65,-1,97,101,56,-1,56,101,102,-1,56,102,64,-1,72,103,44,-1,44,103,104,-1,44,104,45,-1,105,34,106,-1,106,34,2,-1,106,2,1,-1,106,104,105,-1,105,104,103,-1,49,107,41,-1,41,107,108,-1,41,108,42,-1,55,109,56,-1,56,109,110,-1,56,110,69,-1,111,112,107,-1,107,112,108,-1,112,0,108,-1,108,0,42,-1,47,111,49,-1,49,111,107,-1,1,0,112,-1,47,45,111,-1,111,45,104,-1,111,104,112,-1,112,104,106,-1,112,106,1,-1,113,114,109,-1,109,114,110,-1,114,71,110,-1,110,71,69,-1,53,113,55,-1,55,113,109,-1,72,71,114,-1,53,34,113,-1,113,34,105,-1,113,105,114,-1,114,105,103,-1,114,103,72,-1,
        ]
    }
}
Shape{
    appearance Appearance {
        material  Material 	{
            diffuseColor 0.8 0.8 0.8
            specularColor 1.0 1.0 1.0
            ambientIntensity 1.0
            transparency 0.0
            shininess 0.5
        }
    }
    geometry IndexedFaceSet {
        ccw TRUE
        solid FALSE
        coord DEF co Coordinate {
            point [
                0.146 -0.0397 0.5512, 0.146 -0.052 0.5512, 0.146 -0.0397 0.5118, 0.146 -0.052 0.5118, 0.2038 -0.052 0.5512, 0.2038 -0.052 0.5118, 0.2038 0.0607 0.5512, 0.2038 0.0607 0.5118, 0.1887 0.0607 0.5512, 0.1887 0.0607 0.5118
            ]
        }
        coordIndex [
            0,1,2,-1,2,1,3,-1,1,4,3,-1,3,4,5,-1,4,6,5,-1,5,6,7,-1,6,8,7,-1,7,8,9,-1,
        ]
    }
}
Shape{
    appearance Appearance {
        material  Material 	{
            diffuseColor 0.2 0.2 0.2
            specularColor 0.25098039215686274 0.25098039215686274 0.25098039215686274
            ambientIntensity 0.251
            transparency 0.0
            shininess 0.5
        }
    }
    geometry IndexedFaceSet {
        ccw TRUE
        solid FALSE
        coord DEF co Coordinate {
            point [
                0.1887 0.0607 0.5512, 0.1887 -0.0397 0.5512, 0.1887 0.0607 0.5118, 0.1887 -0.0397 0.5118, 0.146 -0.0397 0.5512, 0.146 -0.0397 0.5118, 0.2038 0.0607 0.5512, 0.2038 -0.052 0.5512, 0.146 -0.052 0.5512
            ]
        }
        coordIndex [
            0,1,2,-1,2,1,3,-1,1,4,3,-1,3,4,5,-1,0,6,1,-1,1,6,7,-1,1,7,4,-1,4,7,8,-1,
        ]
    }
}
Shape{
    appearance Appearance {
        material  Material 	{
            diffuseColor 0.792156862745098 0.8196078431372549 0.9333333333333333
            specularColor 0.396078431372549 0.4117647058823529 0.4666666666666667
            ambientIntensity 0.8244
            transparency 0.0
            shininess 0.5
        }
    }
    geometry IndexedFaceSet {
        ccw TRUE
        solid FALSE
        coord DEF co Coordinate {
            point [
                0.0525 -0.0338 0.5512, 0.0525 -0.0462 0.5512, 0.0525 -0.0338 0.5118, 0.0525 -0.0462 0.5118, 0.0645 -0.0511 0.5512, 0.0835 -0.0534 0.5512, 0.0835 -0.0534 0.5118, 0.0805 -0.0534 0.5118, 0.0805 -0.0534 0.5512, 0.0759 -0.0527 0.5118, 0.0645 -0.0511 0.5118, 0.0902 -0.0527 0.5118, 0.0974 -0.052 0.5512, 0.0974 -0.052 0.5118, 0.1084 -0.0482 0.5512, 0.1084 -0.0482 0.5118, 0.1174 -0.0424 0.5512, 0.1174 -0.0424 0.5118, 0.1259 -0.0335 0.5512, 0.1259 -0.0335 0.5118, 0.1319 -0.0228 0.5512, 0.1319 -0.0228 0.5118, 0.1353 -0.0108 0.5512, 0.1353 -0.0108 0.5118, 0.1364 0.0022 0.5512, 0.1364 0.0022 0.5118, 0.0791 0.0621 0.5512, 0.0791 0.0621 0.5118, 0.0904 0.0612 0.5118, 0.0904 0.0612 0.5512, 0.103 0.0575 0.5118, 0.103 0.0575 0.5512, 0.1137 0.0514 0.5118, 0.1137 0.0514 0.5512, 0.1238 0.0416 0.5118, 0.1238 0.0416 0.5512, 0.1305 0.031 0.5118, 0.1305 0.031 0.5512, 0.1348 0.0183 0.5118, 0.1348 0.0183 0.5512, 0.0525 0.0576 0.5512, 0.0525 0.0576 0.5118, 0.0656 0.0612 0.5118, 0.0656 0.0612 0.5512, 0.0525 0.0425 0.5512, 0.0525 0.0425 0.5118, 0.0789 0.0497 0.5512, 0.0789 0.0497 0.5118, 0.0652 0.048 0.5118, 0.0652 0.048 0.5512, 0.1213 0.0031 0.5512, 0.1213 0.0031 0.5118, 0.1207 0.0119 0.5118, 0.1207 0.0119 0.5512, 0.1177 0.024 0.5118, 0.1177 0.024 0.5512, 0.1131 0.0327 0.5118, 0.1131 0.0327 0.5512, 0.1063 0.0402 0.5118, 0.1063 0.0402 0.5512, 0.0985 0.0454 0.5118, 0.0985 0.0454 0.5512, 0.09 0.0485 0.5118, 0.09 0.0485 0.5512, 0.0815 -0.041 0.5512, 0.0815 -0.041 0.5118, 0.092 -0.0399 0.5118, 0.092 -0.0399 0.5512, 0.1002 -0.0368 0.5118, 0.1002 -0.0368 0.5512, 0.1071 -0.0322 0.5118, 0.1071 -0.0322 0.5512, 0.1124 -0.0266 0.5118, 0.1124 -0.0266 0.5512, 0.1171 -0.0188 0.5118, 0.1171 -0.0188 0.5512, 0.1201 -0.0091 0.5118, 0.1201 -0.0091 0.5512, 0.0545 -0.0349 0.5118, 0.0545 -0.0349 0.5512, 0.0665 -0.0394 0.5118, 0.0665 -0.0394 0.5512, -0.03 -0.0397 0.5512, -0.03 -0.052 0.5512, -0.03 -0.0397 0.5118, -0.03 -0.052 0.5118
            ]
        }
        coordIndex [
            0,1,2,-1,2,1,3,-1,3,1,4,-1,5,6,7,-1,5,7,8,-1,8,7,9,-1,8,9,4,-1,4,9,10,-1,4,10,3,-1,6,5,11,-1,11,5,12,-1,11,12,13,-1,13,12,14,-1,13,14,15,-1,15,14,16,-1,15,16,17,-1,17,16,18,-1,17,18,19,-1,19,18,20,-1,19,20,21,-1,21,20,22,-1,21,22,23,-1,23,22,24,-1,23,24,25,-1,26,27,28,-1,26,28,29,-1,29,28,30,-1,29,30,31,-1,31,30,32,-1,31,32,33,-1,33,32,34,-1,33,34,35,-1,35,34,36,-1,35,36,37,-1,37,36,38,-1,37,38,39,-1,39,38,25,-1,39,25,24,-1,40,41,42,-1,40,42,43,-1,43,42,27,-1,43,27,26,-1,40,44,41,-1,41,44,45,-1,46,47,48,-1,46,48,49,-1,49,48,45,-1,49,45,44,-1,50,51,52,-1,50,52,53,-1,53,52,54,-1,53,54,55,-1,55,54,56,-1,55,56,57,-1,57,56,58,-1,57,58,59,-1,59,58,60,-1,59,60,61,-1,61,60,62,-1,61,62,63,-1,63,62,47,-1,63,47,46,-1,64,65,66,-1,64,66,67,-1,67,66,68,-1,67,68,69,-1,69,68,70,-1,69,70,71,-1,71,70,72,-1,71,72,73,-1,73,72,74,-1,73,74,75,-1,75,74,76,-1,75,76,77,-1,77,76,51,-1,77,51,50,-1,0,2,78,-1,0,78,79,-1,79,78,80,-1,79,80,81,-1,81,80,65,-1,81,65,64,-1,67,5,64,-1,64,5,8,-1,64,8,81,-1,81,8,4,-1,81,4,79,-1,79,4,1,-1,79,1,0,-1,44,40,49,-1,49,40,43,-1,49,43,46,-1,46,43,26,-1,46,26,63,-1,63,26,29,-1,63,29,61,-1,61,29,31,-1,61,31,59,-1,59,31,33,-1,59,33,57,-1,57,33,35,-1,57,35,55,-1,55,35,37,-1,55,37,53,-1,53,37,39,-1,53,39,50,-1,50,39,24,-1,50,24,77,-1,77,24,22,-1,77,22,75,-1,75,22,20,-1,75,20,73,-1,73,20,18,-1,73,18,71,-1,71,18,16,-1,71,16,69,-1,69,16,14,-1,69,14,67,-1,67,14,12,-1,67,12,5,-1,82,83,84,-1,84,83,85,-1,
        ]
    }
}
Shape{
    appearance Appearance {
        material  Material 	{
            diffuseColor 0.8 0.8 0.8
            specularColor 1.0 1.0 1.0
            ambientIntensity 1.0
            transparency 0.0
            shininess 0.5
        }
    }
    geometry IndexedFaceSet {
        ccw TRUE
        solid FALSE
        coord DEF co Coordinate {
            point [
                -0.03 -0.052 0.5512, 0.0305 -0.052 0.5512, -0.03 -0.052 0.5118, 0.0305 -0.052 0.5118
            ]
        }
        coordIndex [
            0,1,2,-1,2,1,3,-1,
        ]
    }
}
Shape{
    appearance Appearance {
        material  Material 	{
            diffuseColor 0.792156862745098 0.8196078431372549 0.9333333333333333
            specularColor 0.396078431372549 0.4117647058823529 0.4666666666666667
            ambientIntensity 0.8244
            transparency 0.0
            shininess 0.5
        }
    }
    geometry IndexedFaceSet {
        ccw TRUE
        solid FALSE
        coord DEF co Coordinate {
            point [
                0.0305 -0.052 0.5512, 0.0305 0.0607 0.5512, 0.0305 -0.052 0.5118, 0.0305 0.0607 0.5118, -0.0273 0.0607 0.5512, -0.0273 0.0607 0.5118, -0.0273 0.0484 0.5512, -0.0273 0.0484 0.5118, 0.0154 0.0484 0.5512, 0.0154 0.0484 0.5118, 0.0154 0.0112 0.5512, 0.0154 0.0112 0.5118, -0.0245 0.0112 0.5512, -0.0245 0.0112 0.5118, -0.0245 -0.0012 0.5512, -0.0245 -0.0012 0.5118, 0.0154 -0.0012 0.5512, 0.0154 -0.0012 0.5118, 0.0154 -0.0397 0.5512, 0.0154 -0.0397 0.5118, -0.03 -0.0397 0.5512, -0.03 -0.0397 0.5118, -0.03 -0.052 0.5512, -0.0827 -0.052 0.5512, -0.052 -0.052 0.5512, -0.0827 -0.052 0.5118, -0.052 -0.052 0.5118, -0.052 0.0607 0.5512, -0.052 0.0607 0.5118, -0.0838 0.0607 0.5512, -0.0838 0.0607 0.5118, -0.1428 0.0058 0.5512, -0.1428 0.0058 0.5118, -0.142 0.0164 0.5118, -0.142 0.0164 0.5512, -0.1389 0.0275 0.5118, -0.1389 0.0275 0.5512, -0.1337 0.0372 0.5118, -0.1337 0.0372 0.5512, -0.1257 0.046 0.5118, -0.1257 0.046 0.5512, -0.1256 0.0461 0.5118, -0.1256 0.0461 0.5512, -0.1133 0.0544 0.5118, -0.1133 0.0544 0.5512, -0.1001 0.059 0.5118, -0.1001 0.059 0.5512, -0.0966 -0.0508 0.5118, -0.0966 -0.0508 0.5512, -0.1096 -0.0469 0.5118, -0.1096 -0.0469 0.5512, -0.1214 -0.0401 0.5118, -0.1214 -0.0401 0.5512, -0.1307 -0.0312 0.5118, -0.1307 -0.0312 0.5512, -0.1372 -0.0211 0.5118, -0.1372 -0.0211 0.5512, -0.1412 -0.0093 0.5118, -0.1412 -0.0093 0.5512, -0.1202 0.0325 0.5512, -0.1147 0.0384 0.5512, -0.1064 0.0437 0.5512, -0.0971 0.0469 0.5512, -0.0838 0.0484 0.5512, -0.0671 0.0484 0.5512, -0.0671 -0.0397 0.5512, -0.0832 -0.0397 0.5512, -0.0951 -0.0386 0.5512, -0.1045 -0.0356 0.5512, -0.1122 -0.031 0.5512, -0.1186 -0.0248 0.5512, -0.1233 -0.017 0.5512, -0.1266 -0.0064 0.5512, -0.1277 0.0054 0.5512, -0.1267 0.0167 0.5512, -0.1241 0.0256 0.5512, -0.0838 0.0484 0.5118, -0.0671 0.0484 0.5118, -0.0971 0.0469 0.5118, -0.1064 0.0437 0.5118, -0.1147 0.0384 0.5118, -0.1202 0.0325 0.5118, -0.1241 0.0256 0.5118, -0.1267 0.0167 0.5118, -0.1277 0.0054 0.5118, -0.1266 -0.0064 0.5118, -0.1233 -0.017 0.5118, -0.1186 -0.0248 0.5118, -0.1122 -0.031 0.5118, -0.1045 -0.0356 0.5118, -0.0951 -0.0386 0.5118, -0.0832 -0.0397 0.5118, -0.0671 -0.0397 0.5118
            ]
        }
        coordIndex [
            0,1,2,-1,2,1,3,-1,1,4,3,-1,3,4,5,-1,4,6,5,-1,5,6,7,-1,6,8,7,-1,7,8,9,-1,8,10,9,-1,9,10,11,-1,10,12,11,-1,11,12,13,-1,12,14,13,-1,13,14,15,-1,14,16,15,-1,15,16,17,-1,16,18,17,-1,17,18,19,-1,18,20,19,-1,19,20,21,-1,0,22,20,-1,20,18,0,-1,0,18,16,-1,0,16,1,-1,6,4,8,-1,8,4,1,-1,8,1,10,-1,10,1,16,-1,10,16,12,-1,12,16,14,-1,23,24,25,-1,25,24,26,-1,24,27,26,-1,26,27,28,-1,27,29,28,-1,28,29,30,-1,31,32,33,-1,31,33,34,-1,34,33,35,-1,34,35,36,-1,36,35,37,-1,36,37,38,-1,38,37,39,-1,38,39,40,-1,40,39,41,-1,40,41,42,-1,42,41,43,-1,42,43,44,-1,44,43,45,-1,44,45,46,-1,46,45,30,-1,46,30,29,-1,23,25,47,-1,23,47,48,-1,48,47,49,-1,48,49,50,-1,50,49,51,-1,50,51,52,-1,52,51,53,-1,52,53,54,-1,54,53,55,-1,54,55,56,-1,56,55,57,-1,56,57,58,-1,58,57,32,-1,58,32,31,-1,36,38,59,-1,59,38,40,-1,59,40,60,-1,60,40,42,-1,60,42,61,-1,61,42,44,-1,61,44,62,-1,62,44,46,-1,62,46,63,-1,63,46,29,-1,63,29,64,-1,64,29,27,-1,64,27,65,-1,65,27,24,-1,65,24,66,-1,66,24,23,-1,66,23,67,-1,67,23,48,-1,67,48,68,-1,68,48,50,-1,68,50,69,-1,69,50,52,-1,69,52,70,-1,70,52,54,-1,70,54,71,-1,71,54,56,-1,71,56,72,-1,72,56,58,-1,72,58,73,-1,73,58,31,-1,73,31,74,-1,74,31,34,-1,74,34,75,-1,75,34,36,-1,75,36,59,-1,63,64,76,-1,76,64,77,-1,63,76,78,-1,63,78,62,-1,62,78,79,-1,62,79,61,-1,61,79,80,-1,61,80,60,-1,60,80,81,-1,60,81,59,-1,59,81,82,-1,59,82,75,-1,75,82,83,-1,75,83,74,-1,74,83,84,-1,74,84,73,-1,73,84,85,-1,73,85,72,-1,72,85,86,-1,72,86,71,-1,71,86,87,-1,71,87,70,-1,70,87,88,-1,70,88,69,-1,69,88,89,-1,69,89,68,-1,68,89,90,-1,68,90,67,-1,67,90,91,-1,67,91,66,-1,65,66,92,-1,92,66,91,-1,64,65,77,-1,77,65,92,-1,
        ]
    }
}
Shape{
    appearance Appearance {
        material  Material 	{
            diffuseColor 0.7686274509803922 0.49019607843137253 0.3176470588235294
            specularColor 0.3843137254901961 0.24313725490196078 0.1607843137254902
            ambientIntensity 0.5538
            transparency 0.0
            shininess 0.5
        }
    }
    geometry IndexedFaceSet {
        ccw TRUE
        solid FALSE
        coord DEF co Coordinate {
            point [
                -0.0671 0.0484 0.5118, -0.0671 -0.0397 0.5118, -0.0838 0.0484 0.5118, -0.0832 -0.0397 0.5118, -0.0951 -0.0386 0.5118, -0.1277 0.0054 0.5118, -0.1267 0.0167 0.5118, -0.1241 0.0256 0.5118, -0.0971 0.0469 0.5118, -0.1045 -0.0356 0.5118, -0.1122 -0.031 0.5118, -0.1186 -0.0248 0.5118, -0.1233 -0.017 0.5118, -0.1266 -0.0064 0.5118, -0.1202 0.0325 0.5118, -0.1147 0.0384 0.5118, -0.1064 0.0437 0.5118
            ]
        }
        coordIndex [
            0,1,2,-1,2,1,3,-1,2,3,4,-1,5,6,2,-1,2,6,7,-1,2,7,8,-1,4,9,2,-1,2,9,10,-1,2,10,11,-1,11,12,2,-1,2,12,13,-1,2,13,5,-1,14,15,7,-1,7,15,16,-1,7,16,8,-1,
        ]
    }
}
Shape{
    appearance Appearance {
        material  Material 	{
            diffuseColor 0.792156862745098 0.8196078431372549 0.9333333333333333
            specularColor 0.396078431372549 0.4117647058823529 0.4666666666666667
            ambientIntensity 0.8244
            transparency 0.0
            shininess 0.5
        }
    }
    geometry IndexedFaceSet {
        ccw TRUE
        solid FALSE
        coord DEF co Coordinate {
            point [
                -0.2088 0.0607 0.5512, -0.2528 -0.052 0.5512, -0.2088 0.0607 0.5118, -0.2528 -0.052 0.5118, -0.2363 -0.052 0.5512, -0.2363 -0.052 0.5118, -0.2249 -0.0204 0.5512, -0.2249 -0.0204 0.5118, -0.1783 -0.0204 0.5512, -0.1783 -0.0204 0.5118, -0.1675 -0.052 0.5512, -0.1675 -0.052 0.5118, -0.151 -0.052 0.5512, -0.151 -0.052 0.5118, -0.1937 0.0607 0.5512, -0.1937 0.0607 0.5118, -0.2029 0.0391 0.5512, -0.2198 -0.008 0.5512, -0.2018 0.043 0.5512, -0.2011 0.047 0.5512, -0.1821 -0.008 0.5512, -0.1989 0.0391 0.5512, -0.2007 0.047 0.5512, -0.2 0.043 0.5512, -0.1821 -0.008 0.5118, -0.2198 -0.008 0.5118, -0.1989 0.0391 0.5118, -0.2 0.043 0.5118, -0.2007 0.047 0.5118, -0.2011 0.047 0.5118, -0.2018 0.043 0.5118, -0.2029 0.0391 0.5118
            ]
        }
        coordIndex [
            0,1,2,-1,2,1,3,-1,1,4,3,-1,3,4,5,-1,4,6,5,-1,5,6,7,-1,6,8,7,-1,7,8,9,-1,8,10,9,-1,9,10,11,-1,10,12,11,-1,11,12,13,-1,12,14,13,-1,13,14,15,-1,14,0,15,-1,15,0,2,-1,16,17,18,-1,18,17,19,-1,6,4,1,-1,17,20,8,-1,21,14,20,-1,20,14,12,-1,20,12,8,-1,8,12,10,-1,8,6,17,-1,17,6,1,-1,17,1,19,-1,19,1,0,-1,19,0,22,-1,22,0,14,-1,22,14,23,-1,23,14,21,-1,20,17,24,-1,24,17,25,-1,21,20,26,-1,26,20,24,-1,21,26,27,-1,21,27,23,-1,23,27,28,-1,23,28,22,-1,19,22,29,-1,29,22,28,-1,19,29,30,-1,19,30,18,-1,18,30,31,-1,18,31,16,-1,17,16,25,-1,25,16,31,-1,
        ]
    }
}
Shape{
    appearance Appearance {
        material  Material 	{
            diffuseColor 0.7686274509803922 0.49019607843137253 0.3176470588235294
            specularColor 0.3843137254901961 0.24313725490196078 0.1607843137254902
            ambientIntensity 0.5538
            transparency 0.0
            shininess 0.5
        }
    }
    geometry IndexedFaceSet {
        ccw TRUE
        solid FALSE
        coord DEF co Coordinate {
            point [
                -0.1821 -0.008 0.5118, -0.2198 -0.008 0.5118, -0.1989 0.0391 0.5118, -0.2029 0.0391 0.5118, -0.2 0.043 0.5118, -0.2018 0.043 0.5118, -0.2007 0.047 0.5118, -0.2011 0.047 0.5118
            ]
        }
        coordIndex [
            0,1,2,-1,2,1,3,-1,2,3,4,-1,4,3,5,-1,4,5,6,-1,6,5,7,-1,
        ]
    }
}